<svg xmlns="http://www.w3.org/2000/svg" xmlns:xlink="http://www.w3.org/1999/xlink" xmlns:xodm="http://www.corel.com/coreldraw/odm/2003" xml:space="preserve" version="1.1" style="shape-rendering:geometricPrecision;text-rendering:geometricPrecision;image-rendering:optimizeQuality;" x="0px" y="0px" fill-rule="evenodd" clip-rule="evenodd" viewBox="-1 1056.59 59861.15 58964.42"><defs><style type="text/css">
   
    .fil0 {fill:black;fill-rule:nonzero}
   
  </style></defs><g><path class="fil0" d="M30111.97 38317.98c2403.69,0 4579.86,974.32 6155.11,2549.57 240.47,240.47 466.85,495.01 677.98,762.16 164.53,-311.32 344.99,-609.21 540.06,-893.64 1549.19,-2258.73 4025.39,-3695.6 6770.04,-4277.64 2727.63,-578.43 5726.86,-312.57 8342.66,830.94 708.33,309.65 1387.74,682.8 2025.19,1120 872.19,598.21 1630.17,1251.55 2277.86,1946.35 675.34,724.48 1230.7,1493.84 1670.53,2292.67 1109.44,2015 1483.64,4215.46 1195.44,6356.85 -293.04,2177.22 -1271.94,4290.48 -2859.62,6081.08 -1583.07,1785.41 -3662.37,3207.66 -5877.3,3690.23 -1914.16,417.04 -3923.43,137.84 -5800.29,-1200.45 -988.22,-704.65 -1806.08,-1628.98 -2403.45,-2648.11 -616.75,-1052.19 -999.95,-2206.68 -1094.8,-3326.9 -137.12,-1619.46 255.6,-3095.22 963.64,-4289.3 784.63,-1323.26 1959.33,-2302.1 3233.81,-2750.96 37.15,-13.08 86.76,-29.61 148.6,-49.52 1182.75,-380.69 2430.39,-356.84 3476.6,24.44 1074.85,391.71 1941.28,1156.94 2325.53,2248 6.51,18.47 16.71,49.3 30.55,92.31 239.83,745.14 297.1,1492.54 173.67,2160.24 -97.36,526.69 -306.4,1004.76 -626.34,1396.41 -324.83,397.63 -759.79,703.49 -1303.72,878.56 -557.96,179.58 -1228.43,219.58 -2008.4,75.38 -216.6,-39.69 -360,-247.47 -320.31,-464.07 39.69,-216.6 247.47,-360 464.07,-320.31 643.76,119.01 1183.63,90.35 1620.88,-50.38 390.16,-125.58 699.85,-342.13 928.72,-622.3 233.75,-286.14 387.57,-641.36 460.72,-1037.05 99.83,-540.04 50.71,-1153.25 -148.67,-1772.72 -3.75,-11.67 -11.85,-35.13 -24.29,-70.45 -299.47,-850.33 -987.13,-1451.24 -1844.29,-1763.62 -885.79,-322.81 -1948.16,-341.05 -2960.96,-15.06 -30.14,9.7 -72.35,24.11 -126.74,43.26 -1102.54,388.31 -2123.81,1243.6 -2811.93,2404.1 -628.35,1059.69 -976.59,2372.67 -854.26,3817.42 85.04,1004.37 429.96,2041.77 985.42,2989.4 542.1,924.84 1283.44,1763.04 2178.45,2401.23 1672.13,1192.31 3462.79,1440.93 5169.03,1069.19 2041.77,-444.84 3971.14,-1770.13 5449.18,-3437.09 1481.15,-1670.45 2393.71,-3637.02 2665.88,-5659.22 265.75,-1974.58 -80.11,-4005.12 -1104.82,-5866.21 -408.77,-742.43 -925.67,-1458.27 -1554.91,-2133.29 -608.14,-652.37 -1321.35,-1266.85 -2143.48,-1830.73 -598.05,-410.18 -1233.37,-759.34 -1893.95,-1048.12 -2462.16,-1076.34 -5287.32,-1326.14 -7858.28,-780.94 -2553.93,541.59 -4850.58,1867.71 -6276.28,3946.38 -254.36,370.87 -480.85,764.86 -675.95,1181.67 587.32,926.21 1004.59,1970.89 1207.79,3090.13 190.94,-183.85 408.07,-312.14 636.99,-394.24 332.2,-119.15 682.69,-138.96 1008.56,-89.43 337.49,51.28 656.99,178.9 906.83,348.31 371.11,251.64 619.64,569.84 759.69,921.4 135.64,340.51 167.02,706.41 107.53,1068.9 -57.42,349.93 -200.21,697.67 -415.6,1015.32 -325.66,480.26 -820.49,893.85 -1438.08,1139.88 -151.99,60.55 -301.53,115.66 -450.85,168.52 38.94,16.81 77.31,34.77 115.01,53.87 83.13,42.11 165.37,91.47 245.86,147.77 533.3,373.05 815.98,941.86 878.79,1539.92 30.92,294.44 8.36,595.45 -63.97,882.14 -72.62,287.84 -196.51,564.75 -367.96,809.84 -334.82,478.64 -845.92,828.52 -1506.37,897.89 -219.19,22.43 -415.08,-137.06 -437.51,-356.25 -22.43,-219.19 137.06,-415.08 356.25,-437.51 407.95,-42.84 725.28,-261.28 934.51,-560.39 113.13,-161.73 196.05,-349.02 246.08,-547.34 50.32,-199.47 66.26,-406.68 45.21,-607.12 -40.01,-381.01 -214.34,-739.36 -541.29,-968.06 -44.78,-31.32 -94.66,-60.87 -148.98,-88.39 -250.63,-126.96 -547.37,-173.63 -829.94,-118.75 -274.02,53.21 -535.13,205.3 -725.14,476.95 -27.21,38.9 -53.77,81.87 -79.53,129.02 -422.69,850.88 -980.49,1622.79 -1645.35,2287.65 -1575.25,1575.25 -3751.42,2549.57 -6155.11,2549.57 -2403.69,0 -4579.86,-974.32 -6155.11,-2549.57 -619.85,-619.85 -1146.61,-1332.79 -1557.59,-2116 -39.99,-33.68 -73.99,-75.81 -99.03,-125.45 -33.26,-65.67 -67.98,-123.96 -103.83,-175.22 -190.01,-271.65 -451.12,-423.74 -725.14,-476.95 -282.57,-54.88 -579.31,-8.21 -829.94,118.75 -54.32,27.52 -104.2,57.07 -148.98,88.39 -326.95,228.7 -501.28,587.05 -541.29,968.07 -21.05,200.43 -5.11,407.65 45.21,607.12 50.03,198.31 132.95,385.6 246.08,547.33 209.23,299.12 526.56,517.55 934.51,560.39 219.19,22.43 378.68,218.32 356.25,437.51 -22.43,219.19 -218.32,378.68 -437.51,356.25 -660.45,-69.35 -1171.56,-419.25 -1506.37,-897.89 -171.45,-245.09 -295.34,-522 -367.96,-809.83 -72.33,-286.68 -94.89,-587.7 -63.97,-882.14 62.8,-598.08 345.49,-1166.88 878.79,-1539.93 80.49,-56.3 162.73,-105.66 245.86,-147.77 36.26,-18.37 73.13,-35.67 110.54,-51.92 -151.16,-53.46 -302.51,-109.18 -456.38,-170.47 -617.59,-246.03 -1112.42,-659.62 -1438.08,-1139.88 -215.39,-317.65 -358.18,-665.39 -415.6,-1015.32 -59.49,-362.49 -28.11,-728.39 107.53,-1068.9 140.05,-351.56 388.58,-669.76 759.69,-921.4 249.84,-169.41 569.34,-297.03 906.83,-348.31 325.87,-49.53 676.36,-29.72 1008.56,89.43 244.55,87.71 475.66,228.13 675.73,432.68 184.99,-1045.76 556.65,-2027.1 1079.39,-2908.3 -4.24,-8.17 -8.27,-16.51 -12,-25.07 -213.98,-489.49 -470.56,-948.59 -764.29,-1376.87 -1425.7,-2078.67 -3722.35,-3404.79 -6276.28,-3946.38 -2570.96,-545.2 -5396.12,-295.4 -7858.28,780.94 -660.58,288.78 -1295.9,637.94 -1893.95,1048.12 -478.91,328.46 -918.75,671.95 -1320.41,1028.1 -2133,1891.31 -3268.3,4190.13 -3516.23,6528.61 -248.1,2340.1 390.15,4725.83 1804.56,6788.06 272.02,396.59 570.56,779.05 894.75,1144.68 1478.04,1666.96 3407.4,2992.25 5449.17,3437.1 1706.24,371.73 3496.9,123.11 5169.04,-1069.2 895.01,-638.19 1636.35,-1476.39 2178.45,-2401.23 555.46,-947.63 900.38,-1985.03 985.42,-2989.4 122.33,-1444.75 -225.91,-2757.73 -854.26,-3817.42 -688.12,-1160.5 -1709.39,-2015.79 -2811.93,-2404.1 -54.39,-19.15 -96.6,-33.56 -126.74,-43.26 -1012.8,-325.99 -2075.17,-307.75 -2960.96,15.06 -857.16,312.38 -1544.82,913.29 -1844.29,1763.62 -12.44,35.32 -20.54,58.78 -24.29,70.45 -199.38,619.47 -248.5,1232.68 -148.67,1772.72 73.15,395.69 226.97,750.91 460.72,1037.05 228.87,280.17 538.56,496.72 928.72,622.3 437.25,140.73 977.12,169.39 1620.88,50.38 216.6,-39.69 424.38,103.71 464.07,320.31 39.69,216.6 -103.71,424.38 -320.31,464.07 -779.97,144.2 -1450.44,104.2 -2008.4,-75.38 -543.93,-175.07 -978.89,-480.93 -1303.72,-878.56 -319.94,-391.65 -528.98,-869.72 -626.34,-1396.41 -123.43,-667.7 -66.16,-1415.1 173.67,-2160.24 13.84,-43.01 24.04,-73.84 30.55,-92.31 384.25,-1091.06 1250.68,-1856.29 2325.53,-2248 1046.21,-381.28 2293.85,-405.13 3476.6,-24.44 61.84,19.91 111.45,36.44 148.6,49.52 1274.48,448.86 2449.18,1427.7 3233.81,2750.96 708.04,1194.08 1100.76,2669.84 963.64,4289.3 -94.85,1120.22 -478.05,2274.71 -1094.8,3326.9 -597.37,1019.13 -1415.23,1943.46 -2403.45,2648.11 -1876.87,1338.3 -3886.14,1617.49 -5800.3,1200.46 -2214.92,-482.58 -4294.22,-1904.83 -5877.29,-3690.24 -350.56,-395.37 -669.92,-803.89 -957.25,-1222.8 -1521.27,-2218.03 -2207.05,-4790.45 -1938.94,-7319.32 268.29,-2530.5 1489.53,-5011.63 3781.87,-7044.23 430.91,-382.09 896.9,-746.56 1398.53,-1090.6 637.45,-437.2 1316.86,-810.35 2025.19,-1120 2615.8,-1143.51 5615.03,-1409.37 8342.66,-830.94 2744.65,582.04 5220.85,2018.91 6770.04,4277.64 233.07,339.84 445.29,698.91 634.4,1077.12 250.35,-334.66 524.25,-650.68 819.21,-945.64 1575.25,-1575.25 3751.42,-2549.57 6155.11,-2549.57zm-1342.77 -4425.96c-21.03,-135.91 72.09,-263.15 208,-284.18 135.91,-21.03 263.15,72.09 284.18,208l437.63 2800.82c21.03,135.91 -72.09,263.15 -208,284.18 -135.91,21.03 -263.15,-72.09 -284.18,-208l-437.63 -2800.82zm-450.85 -12385.8c-21.03,-135.91 72.09,-263.15 208,-284.18 135.91,-21.03 263.15,72.09 284.18,208l1270 8128.01c21.03,135.91 -72.09,263.15 -208,284.18 -135.91,21.03 -263.15,-72.09 -284.18,-208l-1270 -8128.01zm2977.45 7655.58c-37.1,-217.46 109.1,-423.84 326.56,-460.94 217.46,-37.1 423.84,109.1 460.94,326.56l1016 5947.83c37.1,217.46 -109.1,423.84 -326.56,460.94 -217.46,37.1 -423.84,-109.1 -460.94,-326.56l-1016 -5947.83zm-1862.66 -10991.76c-33.65,-217.46 115.35,-421.04 332.81,-454.69 217.46,-33.65 421.04,115.35 454.69,332.81l1270 8128.01c33.65,217.46 -115.35,421.04 -332.81,454.69 -217.46,33.65 -421.04,-115.35 -454.69,-332.81l-1270 -8128.01zm-1182 -514.93l-773.78 -203.14 406.29 -1547.55 773.78 203.14 -406.29 1547.55zm-5556.48 21164.44l274.68 -1046.23 -773.78 -203.14 -274.68 1046.23 773.78 203.14zm1290.42 -4915.13l-773.78 -203.14 406.29 -1547.55 773.78 203.14 -406.29 1547.55zm1422.02 -5416.44l-773.78 -203.14 406.29 -1547.55 773.78 203.14 -406.29 1547.55zm1422.02 -5416.44l-773.78 -203.14 406.29 -1547.55 773.78 203.14 -406.29 1547.55zm4798.46 -5751.55l-773.72 203.36 -406.71 -1547.44 773.72 -203.36 406.71 1547.44zm5597.37 21296.31l-310.03 -1179.56 -773.72 203.36 310.03 1179.56 773.72 -203.36zm-1326.83 -5048.17l-773.72 203.36 -406.72 -1547.44 773.72 -203.36 406.72 1547.44zm-1423.52 -5416.05l-773.72 203.36 -406.72 -1547.44 773.72 -203.36 406.72 1547.44zm-1423.52 -5416.05l-773.72 203.36 -406.71 -1547.44 773.72 -203.36 406.71 1547.44zm-6040.37 -6242.32l-735.16 -315.52 315.51 -735.15 735.16 315.52 -315.51 735.15zm-7572.39 17643.65l-735.16 -315.52 315.52 -735.15 735.16 315.52 -315.52 735.15zm1262.08 -2940.61l-735.16 -315.52 315.52 -735.15 735.16 315.52 -315.52 735.15zm1262.08 -2940.61l-735.16 -315.52 315.51 -735.15 735.16 315.52 -315.51 735.15zm1262.06 -2940.61l-735.16 -315.52 315.51 -735.15 735.16 315.52 -315.51 735.15zm1262.06 -2940.61l-735.16 -315.52 315.51 -735.15 735.16 315.52 -315.51 735.15zm1262.06 -2940.61l-735.16 -315.52 315.51 -735.15 735.16 315.52 -315.51 735.15zm6962.69 -3626.5l-735.16 315.52 -315.51 -735.15 735.16 -315.52 315.51 735.15zm7572.38 17643.65l-735.16 315.52 -315.52 -735.15 735.16 -315.52 315.52 735.15zm-1262.08 -2940.61l-735.16 315.52 -315.52 -735.15 735.16 -315.52 315.52 735.15zm-1262.07 -2940.61l-735.16 315.52 -315.51 -735.15 735.16 -315.52 315.51 735.15zm-1262.06 -2940.61l-735.16 315.52 -315.51 -735.15 735.16 -315.52 315.51 735.15zm-1262.06 -2940.61l-735.16 315.52 -315.51 -735.15 735.16 -315.52 315.51 735.15zm-1262.06 -2940.61l-735.16 315.52 -315.51 -735.15 735.16 -315.52 315.51 735.15zm9140.5 -8703.52c163.09,148.42 174.98,400.97 26.56,564.06 -148.42,163.09 -400.97,174.98 -564.06,26.56 -763.43,-695.62 -2086.26,-1382.76 -3585.59,-1816.59 -1214.85,-351.52 -2537.62,-533.15 -3762.37,-413.82 -92.34,319.59 -217.12,586.15 -371.32,814.85 -396.01,587.32 -951.71,894.13 -1635.21,1188 -995.39,427.99 -1697.34,1203.94 -2436.48,2020.98l-91.79 101.43c-131.44,145.1 -214.27,232.2 -284.4,305.95 -268.12,281.94 -285.51,300.26 -190.17,737.43 20.91,95.86 31.14,190.85 31.82,284.5 2.13,289.08 -96.99,514.63 -262.58,685.18 -153.73,158.32 -356.27,256.22 -579.98,305.01 -111.02,24.21 -233.04,36 -360.46,36.94 -704.23,5.18 -1153.65,-330.95 -1435.65,-827.65 -248.83,-438.26 -348.47,-996.63 -377.14,-1531.47 -73.8,-1375.97 385.29,-1719.36 1219.9,-2343.62 72.75,-54.42 -160.71,120.27 124.28,-94.35 6.88,-5.2 13.89,-10.1 20.99,-14.79 276.58,-212.48 518.09,-488.68 674.82,-795.52 135.49,-265.24 205.45,-552.75 174.15,-837.7 -105.82,-963.14 136.59,-1664.43 653.57,-2187.28 491.65,-497.23 1219,-805.11 2120.77,-1009.81 214.87,-48.32 428.24,86.69 476.56,301.56 48.32,214.87 -86.69,428.24 -301.56,476.56 -759.17,172.33 -1355.73,415.57 -1727.01,791.07 -345.94,349.87 -505.54,843.02 -428.57,1543.52 49.05,446.53 -55.1,886.34 -258.53,1284.58 -211.99,415.03 -534.39,785.22 -901.26,1066.86 -7.28,6.37 -14.83,12.53 -22.67,18.45 -199.04,149.89 27.17,-21.29 -127.42,94.35 -614.34,459.5 -952.27,712.29 -901.14,1665.5 23,429.05 96.2,865.14 274.02,1178.33 144.65,254.78 375.81,427.2 738.77,424.53 64.72,-0.47 130.44,-7.28 194.82,-21.32 78.16,-17.04 141.18,-43.27 176.86,-80.01 23.82,-24.53 38.02,-65.1 37.58,-125.8 -0.21,-30.11 -5.42,-69.45 -16.2,-118.86 -184.96,-848.08 -149.72,-885.16 393.31,-1456.19 86.11,-90.56 187.74,-197.43 271.9,-290.33l91.79 -101.43c801.22,-885.68 1562.12,-1726.8 2711.48,-2220.98 558.1,-239.96 1005.31,-480.75 1288.33,-900.5 132.37,-196.32 236.23,-438.05 308.22,-744.05 1.48,-48.55 11.8,-95.39 29.6,-138.68 67.43,-350.46 97.26,-778.83 85.26,-1308.8 -4.31,-220.05 170.58,-401.94 390.63,-406.25 220.05,-4.31 401.94,170.58 406.25,390.63 8.65,382.18 -3.34,722.09 -34.68,1026.11 1264.48,-87.66 2603.05,105.44 3832.79,461.27 1615.7,467.5 3055.78,1221.25 3901.21,1991.59zm-10090.78 -8078.66c1022.24,574.03 2518.85,845.77 3990.83,798.89 1423.94,-45.35 2807.15,-387.87 3690.45,-1042.09 176.9,-131.16 426.65,-94.09 557.81,82.81 131.16,176.9 94.09,426.65 -82.81,557.81 -1018.9,754.66 -2567.45,1148.25 -4140.45,1198.35 -833.05,26.53 -1678.01,-43.02 -2458.67,-206.08 169.67,225.19 317.91,452.99 455.14,677.21 114.77,188.12 55.3,433.67 -132.82,548.44 -188.12,114.77 -433.67,55.3 -548.44,-132.82 -343.2,-560.73 -760.68,-1144.48 -1447.54,-1613.66 -697.9,-476.72 -1684.98,-847.78 -3173.49,-983.09 -219.19,-19.84 -380.78,-213.63 -360.94,-432.82 19.84,-219.19 213.63,-380.78 432.82,-360.94 1426.84,129.7 2450.59,465.16 3218.11,907.99zm-7011.1 10864.93c220.05,4.31 394.94,186.2 390.63,406.25 -4.31,220.05 -186.2,394.94 -406.25,390.63 -707.93,-14.09 -1245.61,-116.28 -1685.93,-322.07 -459.9,-214.94 -798.89,-531.52 -1095.5,-966.72 -273.26,-400.89 -339.07,-900.11 -305.76,-1425.7 24.28,-383.12 101.2,-778.69 184.16,-1155.15 -635.94,-428.72 -1366.09,-929.43 -1255.24,-1910.72 36.28,-321.13 185.98,-614.44 405.6,-884.01 -110.69,-175.18 -203.15,-361.7 -267.08,-556.68 -79.39,-242.14 -113.88,-495.22 -84.69,-753.72 42.12,-372.81 281.59,-713.78 606.46,-1011.01 -37.89,-118.71 -66.8,-241.64 -84.58,-368.17 -21.71,-154.51 -25.97,-312.37 -8.79,-472.08 41.96,-390.22 278.04,-752.52 588.71,-1067.4 403.68,-409.14 944.41,-749.63 1296.2,-941.84 868.77,-474.65 2056.56,-450.71 3010.99,-431.5l55.63 1.12c494.99,9.85 851.81,128.61 1098.34,311.79 248.01,184.29 383.31,425.27 433.33,689.08 45.59,240.41 15.89,493.02 -64.93,730.24 -43.21,126.81 -102.17,251.05 -172.66,367.69 131.96,54.02 243.83,118.1 337.43,189.95 238.09,182.75 365.75,410.97 408.66,657.89 39.77,228.75 0.72,465.52 -93.17,688.7 -73.95,175.79 -184.79,345.27 -318.08,494.63 94.5,78.01 169.97,164.45 228.35,256.86 126.2,199.75 171.42,418.44 154.69,639.15 -15.03,198.06 -81.58,396.17 -183.78,579.65 -166.87,299.59 -442.92,568.29 -748.26,732.05 67.82,247.83 51.23,521.24 -54.65,821.06 -42.23,119.59 -101.88,248.02 -179.36,385.45 -332.14,589.05 -832.94,849.81 -1383.9,944.64 -495.17,85.23 -1015.3,27.67 -1475.02,-33.32 -218.32,-28.47 -372.22,-228.55 -343.75,-446.87 28.47,-218.32 228.55,-372.22 446.87,-343.75 399.28,52.97 847.95,103.49 1237.52,36.44 333.76,-57.44 633.71,-209.36 824.52,-547.76 50.21,-89.06 90.14,-175.88 120,-260.45 55.02,-155.8 63.04,-280.26 26.98,-374.93 -36.3,-95.28 -123.34,-180.67 -257.78,-256.47 -67.96,-38.32 -152.06,-75.09 -251.75,-110.3 -392.46,-138.62 -729.54,47.53 -1276.4,349.55l-14.27 7.88c-448.1,247.44 -903.77,508.27 -1260.06,812.02 -321.72,274.28 -568.83,588.02 -660.4,968.25 -2.29,12.8 -5.22,25.54 -8.8,38.16 -94.33,414.79 -194.22,864.47 -220.16,1273.88 -23.14,365.15 11.72,696.05 168.26,925.7 217.39,318.97 457.58,547.13 773.62,694.84 335.63,156.86 770.74,235.27 1364.05,247.07zm-2665.69 -3867.9c174.76,-340.11 429.62,-629.86 730.36,-886.26 416.17,-354.81 910.75,-638.67 1394.44,-905.76l14.27 -7.88c740.02,-408.7 1196.14,-660.6 1926.4,-402.67 134.73,47.58 260.43,104.08 376.75,169.66 64.66,36.46 124.94,75.23 180.8,116.32 194.02,-62.64 397.8,-249.39 518.53,-466.15 47.29,-84.9 77.7,-171.34 83.78,-251.53 4.36,-57.55 -5.14,-110.97 -32.81,-154.77 -98.39,-155.75 -384.04,-274.05 -960.2,-290.68 -105.35,-3.03 -188.95,-5.75 -272.6,-8.44 -1055.34,-34.08 -2083.79,-67.3 -2909,436.2 -408.6,249.29 -860.38,528.8 -1209.55,829.16 -302.11,259.89 -525.73,530.21 -555.61,794.72 -48.83,432.29 323.29,753.72 714.44,1028.08zm-509.24 -2567.55c359.27,-283.42 769.27,-536.84 1144.34,-765.67 1027.33,-626.83 2173.49,-589.81 3349.62,-551.82 96.69,3.12 193.89,6.26 269.48,8.44 214.84,6.2 406.71,26.92 577.49,59.9 168.71,-110.71 316,-279.5 391.18,-458.21 36.43,-86.61 52.79,-171.63 40.05,-244.94 -9.58,-55.14 -42.36,-109.4 -105.54,-157.89 -119.92,-92.05 -317.93,-161.82 -616.46,-193.88 -12.85,-0.66 -25.65,-1.95 -38.35,-3.85 -71.04,-6.67 -147.5,-11.3 -229.69,-13.67l-65.76 -1.91c-1030.35,-29.91 -2312.59,-67.14 -3141.74,309.31 -362.62,164.64 -915.46,453.93 -1312.7,794.54 -226.02,193.8 -393.86,392.68 -413.29,564.71 -15.66,138.74 4.65,280.08 50.31,419.34 25.94,79.12 60.23,157.91 101.06,235.6zm362.33 -2271.77c319.12,-197.93 640.64,-359.97 884.17,-470.54 992.53,-450.63 2378.24,-410.39 3491.74,-378.07l65.76 1.91c48.74,1.41 96.28,3.55 142.64,6.4 120.1,-112.71 224.53,-273.85 283.33,-446.4 39.27,-115.26 55.31,-229.51 36.81,-327.1 -14.06,-74.18 -52.74,-142.42 -123.95,-195.34 -121.43,-90.23 -325.63,-149.29 -638.96,-155.53l-55.63 -1.12c-860.09,-17.32 -1930.47,-38.88 -2614.11,334.62 -305.04,166.66 -770.99,458.93 -1108.7,801.22 -196.66,199.33 -343.76,406.9 -363.71,592.4 -8.52,79.2 -7.82,158.63 0.61,237.55zm-16450.75 36186.93c113.79,-77.66 269.02,-48.37 346.68,65.42 77.66,113.79 48.37,269.02 -65.42,346.68 -831.52,570.32 -1553.13,1192.09 -2168.68,1852.41 -637.88,684.29 -1161.99,1410.17 -1576.59,2163.18 -66.34,120.81 -218.06,164.97 -338.87,98.63 -120.81,-66.34 -164.97,-218.06 -98.63,-338.87 434,-788.25 982.15,-1547.57 1648.85,-2262.78 640.28,-686.84 1389.86,-1332.9 2252.66,-1924.67zm46215.53 412.1c-113.79,-77.66 -143.08,-232.89 -65.42,-346.68 77.66,-113.79 232.89,-143.08 346.68,-65.42 862.8,591.77 1612.38,1237.83 2252.66,1924.67 666.7,715.21 1214.85,1474.53 1648.85,2262.78 66.34,120.81 22.18,272.53 -98.63,338.87 -120.81,66.34 -272.53,22.18 -338.87,-98.63 -414.6,-753.01 -938.71,-1478.89 -1576.59,-2163.18 -615.55,-660.32 -1337.16,-1282.09 -2168.68,-1852.41zm-31270.03 8523.8c-181.33,-688.05 -280.62,-1409.4 -286.58,-2153.01 -19.77,-38.09 -33.7,-80.04 -40.43,-124.85 -49.84,-327.96 -144.75,-576.36 -268.73,-759.2 -137.05,-202.13 -312.99,-328.24 -502.15,-396.08 -195.99,-70.29 -412.89,-80.45 -621.04,-48.81 -221.97,33.73 -425.45,113.16 -578.71,217.07 -231.13,156.72 -383.28,348.25 -465.95,555.78 -79.97,200.77 -97.49,422.55 -60.65,647.02 38.89,237.03 137.67,475.63 287.48,696.56 240.6,354.82 609.41,661.68 1072.46,846.14 236.59,94.25 520.24,191.04 810.33,290.01 215.8,73.63 435.12,148.47 653.97,229.37zm17122.05 -2309.62c0.27,28.48 0.43,56.97 0.43,85.51 0,762.03 -98,1501.16 -281.97,2205.55 202.07,-73.84 404.29,-142.84 603.49,-210.81 290.09,-98.97 573.74,-195.76 810.33,-290.01 463.05,-184.46 831.86,-491.32 1072.46,-846.14 149.81,-220.93 248.59,-459.53 287.48,-696.56 36.84,-224.47 19.32,-446.25 -60.65,-647.02 -82.67,-207.53 -234.82,-399.06 -465.95,-555.78 -153.26,-103.91 -356.74,-183.34 -578.71,-217.07 -208.15,-31.64 -425.05,-21.48 -621.04,48.81 -189.16,67.84 -365.1,193.95 -502.15,396.08 -119.94,176.89 -212.68,415.15 -263.72,727.44zm-8704.25 -5456.25c1530.29,0 2915.74,620.3 3918.6,1623.16 1002.86,1002.86 1623.16,2388.31 1623.16,3918.6 0,1530.29 -620.3,2915.74 -1623.16,3918.6 -1002.86,1002.86 -2388.31,1623.16 -3918.6,1623.16 -1530.29,0 -2915.74,-620.3 -3918.6,-1623.16 -1002.86,-1002.86 -1623.16,-2388.31 -1623.16,-3918.6 0,-1530.29 620.3,-2915.74 1623.16,-3918.6 1002.86,-1002.86 2388.31,-1623.16 3918.6,-1623.16zm3565.08 1976.68c-912.36,-912.36 -2172.82,-1476.68 -3565.08,-1476.68 -1392.26,0 -2652.72,564.32 -3565.08,1476.68 -912.36,912.36 -1476.68,2172.82 -1476.68,3565.08 0,1392.26 564.32,2652.72 1476.68,3565.08 912.36,912.36 2172.82,1476.68 3565.08,1476.68 1392.26,0 2652.72,-564.32 3565.08,-1476.68 912.36,-912.36 1476.68,-2172.82 1476.68,-3565.08 0,-1392.26 -564.32,-2652.72 -1476.68,-3565.08zm2024.41 -2024.41c-1430.44,-1430.44 -3406.63,-2315.19 -5589.49,-2315.19 -2182.86,0 -4159.05,884.75 -5589.49,2315.19 -1430.44,1430.45 -2315.19,3406.64 -2315.19,5589.49 0,2182.86 884.75,4159.05 2315.19,5589.49 1430.44,1430.44 3406.63,2315.19 5589.49,2315.19 2182.86,0 4159.05,-884.75 5589.49,-2315.19 1430.44,-1430.44 2315.19,-3406.63 2315.19,-5589.49 0,-2182.85 -884.75,-4159.04 -2315.19,-5589.49z"/></g><text x="0" y="60015" fill="#000000" font-size="5px" font-weight="bold" font-family="'Helvetica Neue', Helvetica, Arial-Unicode, Arial, Sans-serif">Created by Olena Panasovska</text><text x="0" y="60020" fill="#000000" font-size="5px" font-weight="bold" font-family="'Helvetica Neue', Helvetica, Arial-Unicode, Arial, Sans-serif">from the Noun Project</text></svg>